<svg xmlns="http://www.w3.org/2000/svg" width="256" height="256" viewBox="0 0 256 256">
  <g id="svg" transform="translate(-4981 -7624)">
    <g id="Rectangle_1202" data-name="Rectangle 1202" transform="translate(4981 7624)" fill="#4065a4" stroke="#707070" stroke-width="1">
      <rect width="256" height="256" stroke="none"/>
      <rect x="0.5" y="0.5" width="255" height="255" fill="none"/>
    </g>
    <g id="Artboard_10" data-name="Artboard 10" transform="translate(4997.275 7727.48)">
      <path id="Path_45897" data-name="Path 45897" d="M18.4,5.52h.63a17.94,17.94,0,0,1,8.118,2.527,1.016,1.016,0,0,1,.584,1.04c-.048.71-.013,1.425-.013,2.174a1.358,1.358,0,0,1-.63-.369A15.11,15.11,0,0,0,15.086,8.355a10.992,10.992,0,0,0-8.589,7.4A14.114,14.114,0,0,0,7.744,28.641a11.118,11.118,0,0,0,8.59,5.144,15.338,15.338,0,0,0,11.014-2.94c.092-.067.165-.186.369-.15v2.578c0,.265-.2.344-.374.458A16.606,16.606,0,0,1,20.78,36.2a16.336,16.336,0,0,1-5.268.047.794.794,0,0,0-.61.23L5.393,43.251a1.014,1.014,0,0,1-.5.269c.394-1.222.776-2.415,1.163-3.611.682-2.1,1.36-4.2,2.058-6.3a.55.55,0,0,0-.21-.7,14.489,14.489,0,0,1-5.047-9.781A16.46,16.46,0,0,1,4.784,12.778,14.257,14.257,0,0,1,15,5.75c.6-.112,1.212-.152,1.817-.227h.63Z" fill="#fff"/>
      <path id="Path_45898" data-name="Path 45898" d="M286.328,26.964a8.17,8.17,0,0,1,5.049-3.291,6.5,6.5,0,0,1,5.791,1.19,6.477,6.477,0,0,1,2.052,4.445,43.786,43.786,0,0,1,.1,4.91c.019,2.11,0,4.22.014,6.33,0,.369-.1.484-.466.463a13.759,13.759,0,0,0-1.624,0c-.379.022-.461-.115-.46-.472q.02-4.551,0-9.1a9.434,9.434,0,0,0-.388-2.94A3.642,3.642,0,0,0,293,25.828a6.2,6.2,0,0,0-6.678,6.089c0,2.86-.008,5.72.01,8.578,0,.42-.111.544-.525.517a14.225,14.225,0,0,0-1.625,0c-.337.018-.425-.1-.4-.42s.005-.662.005-.993q0-13.837-.009-27.674c0-.439.072-.63.562-.581a8.66,8.66,0,0,0,1.47,0c.407-.029.525.092.525.512-.019,3.069-.01,6.139-.01,9.207Z" transform="translate(-251.548 -5.207)" fill="#fff"/>
      <path id="Path_45899" data-name="Path 45899" d="M695.145,130.821a8.225,8.225,0,0,1,8.679-3.506c2.478.608,3.7,2.332,4.206,4.688a11.37,11.37,0,0,1,.233,2.436q-.007,4.838.005,9.675c0,.374-.067.535-.482.5a9.916,9.916,0,0,0-1.519,0c-.43.033-.555-.091-.552-.536.021-3.051.01-6.1.012-9.152a11.211,11.211,0,0,0-.18-2.026c-.525-2.883-2.531-3.756-5.009-3.446a6.353,6.353,0,0,0-5.134,4.774,6.5,6.5,0,0,0-.122,1.348c-.01,2.824-.018,5.648.007,8.472,0,.478-.139.6-.588.565a9.236,9.236,0,0,0-1.47,0c-.435.036-.513-.135-.512-.531.014-3.885.008-7.774.008-11.662,0-1.394.012-2.79-.008-4.184,0-.368.059-.542.479-.5a8.545,8.545,0,0,0,1.365,0c.386-.029.463.128.468.477C695.044,129.045,695.1,129.873,695.145,130.821Z" transform="translate(-617.554 -108.816)" fill="#fff"/>
      <path id="Path_45900" data-name="Path 45900" d="M894.36,130.613a7.9,7.9,0,0,1,4.079-3.225,7.3,7.3,0,0,1,5.995.249,5.6,5.6,0,0,1,2.8,4.086,11.075,11.075,0,0,1,.249,2.438c.005,3.243,0,6.486.012,9.728,0,.413-.1.548-.525.525a12.887,12.887,0,0,0-1.575,0c-.372.021-.468-.1-.466-.469.014-2.946,0-5.892.009-8.839a11.275,11.275,0,0,0-.268-2.852c-.662-2.557-2.611-3.309-4.954-2.989a6.331,6.331,0,0,0-5.122,4.907,5.366,5.366,0,0,0-.075,1.039c0,2.893-.01,5.788.006,8.681,0,.408-.105.552-.525.525a12.887,12.887,0,0,0-1.575,0c-.366.02-.473-.1-.47-.467.017-1.882.008-3.766.008-5.648,0-3.417.007-6.834-.01-10.251,0-.42.121-.544.525-.512a8.518,8.518,0,0,0,1.309,0c.361-.028.432.124.441.441C894.265,128.8,894.313,129.637,894.36,130.613Z" transform="translate(-795.868 -108.606)" fill="#fff"/>
      <path id="Path_45901" data-name="Path 45901" d="M1410.956,147.925c3.171,0,6.317.009,9.463-.01.448,0,.638.087.577.566a4.576,4.576,0,0,0,0,1.05c.043.42-.115.52-.525.519-3.741-.016-7.48-.009-11.221-.009-.42,0-.84-.013-1.26,0-.272.01-.348-.087-.367-.357a2.948,2.948,0,0,1,.657-2.156c3.034-3.937,6.01-7.918,9-11.883.071-.1.139-.194.268-.377h-.615c-2.779,0-5.558-.008-8.336.009-.4,0-.525-.1-.489-.5a9.762,9.762,0,0,0,0-1.254c-.014-.275.083-.362.357-.358.84.015,1.68,0,2.52,0,3.094,0,6.187.007,9.281-.008.4,0,.505.1.533.511a2.734,2.734,0,0,1-.645,1.951c-3.018,3.948-6,7.923-8.993,11.892C1411.079,147.621,1410.951,147.7,1410.956,147.925Z" transform="translate(-1257.39 -114.239)" fill="#fff"/>
      <path id="Path_45902" data-name="Path 45902" d="M1273.776,26.231c0,4.758-.007,9.516.013,14.278,0,.475-.129.6-.582.565a10.336,10.336,0,0,0-1.519,0c-.386.026-.47-.121-.454-.475.028-.591.007-1.184.007-1.776q0-13.412-.012-26.823c0-.486.131-.63.6-.591a10.947,10.947,0,0,0,1.519,0c.358-.021.433.118.43.447-.014,1.934-.007,3.869-.007,5.8Z" transform="translate(-1135.328 -5.265)" fill="#fff"/>
      <path id="Path_45903" data-name="Path 45903" d="M1347.211,141.585c0-2.65.009-5.3-.01-7.95,0-.4.1-.509.494-.484a13.971,13.971,0,0,0,1.624,0c.352-.019.438.1.434.44-.017,1.5-.007,3-.007,4.5,0,3.8-.007,7.6.011,11.4,0,.44-.117.573-.551.542a12.069,12.069,0,0,0-1.575,0c-.359.021-.431-.117-.428-.444C1347.216,146.919,1347.211,144.253,1347.211,141.585Z" transform="translate(-1203.323 -114.229)" fill="#fff"/>
      <path id="Path_45904" data-name="Path 45904" d="M1839.761,141.536c0-2.63.008-5.261-.01-7.891,0-.4.085-.554.511-.525a12.9,12.9,0,0,0,1.624,0c.352-.019.436.1.431.441-.016,1.533-.006,3.066-.006,4.6,0,3.763-.007,7.525.01,11.288,0,.42-.086.59-.539.553a11.2,11.2,0,0,0-1.575,0c-.379.023-.461-.115-.459-.472C1839.767,146.867,1839.761,144.2,1839.761,141.536Z" transform="translate(-1644.161 -114.201)" fill="#fff"/>
      <path id="Path_45905" data-name="Path 45905" d="M76.527,140.052a3.879,3.879,0,0,0-2.8,1,1.752,1.752,0,0,1-2.691.013,3.924,3.924,0,0,0-5.13-.082,1.68,1.68,0,0,1-1.592.439,1.522,1.522,0,0,1-1.122-1.309,1.544,1.544,0,0,1,.779-1.486,1.565,1.565,0,0,1,1.808.2,4.048,4.048,0,0,0,1.8.9,3.625,3.625,0,0,0,3.408-.852,1.792,1.792,0,0,1,2.735-.018,3.94,3.94,0,0,0,4.97.185,5.892,5.892,0,0,1,.549-.4,1.528,1.528,0,1,1,.088,2.679,2.652,2.652,0,0,1-.472-.323A4.215,4.215,0,0,0,76.527,140.052Z" transform="translate(-54.116 -118.775)" fill="#fff"/>
      <path id="Path_45906" data-name="Path 45906" d="M1754.162,265.91c-.446-.049-1.155.234-1.461-.113-.263-.3-.081-.993-.088-1.512-.006-.436.014-.871-.007-1.306-.013-.281.093-.355.361-.351q1.283.02,2.566,0c.287-.005.4.07.4.378-.017.853-.015,1.706,0,2.559,0,.282-.105.36-.372.35C1755.124,265.9,1754.685,265.91,1754.162,265.91Z" transform="translate(-1566.123 -230.115)" fill="#fff"/>
      <path id="Path_45907" data-name="Path 45907" d="M1347.29,51.449c0-.4.015-.8,0-1.2-.014-.279.094-.36.361-.354.609.015,1.219.016,1.828,0,.277-.006.36.1.356.365q-.021,1.172,0,2.343c0,.281-.1.358-.367.353-.609-.013-1.219-.016-1.828,0-.281.007-.361-.1-.349-.365C1347.3,52.217,1347.29,51.831,1347.29,51.449Z" transform="translate(-1203.402 -39.718)" fill="#fff"/>
      <path id="Path_45908" data-name="Path 45908" d="M1842.411,51.494c-.057.412.224,1.05-.11,1.365-.3.288-.933.077-1.418.082-1.023.012-1.023,0-1.023-1.044,0-.557.008-1.114,0-1.67,0-.244.074-.343.329-.339.63.013,1.26.016,1.883,0,.288-.007.358.114.348.374C1842.394,50.644,1842.411,51.027,1842.411,51.494Z" transform="translate(-1644.26 -39.709)" fill="#fff"/>
      <path id="Path_45909" data-name="Path 45909" d="M491.038,128.2c0-.087-.006-.174,0-.261.019-.224-.079-.308-.3-.3a10.728,10.728,0,0,1-1.365-.006c-.459-.048-.562.16-.569.554a15.5,15.5,0,0,1-.142,2.381,5.765,5.765,0,0,0-1.082-1.419,8.424,8.424,0,0,0-12.388,1.218,9.819,9.819,0,0,0-1.5,7.979,8.306,8.306,0,0,0,10.27,6.553,7.241,7.241,0,0,0,4.7-3.3,18.9,18.9,0,0,1,.145,2.46c.014.339.131.5.5.461a6.042,6.042,0,0,1,1.155,0c.458.046.585-.1.583-.569C491.032,138.7,491.038,133.448,491.038,128.2Zm-3.015,11.043a6.217,6.217,0,0,1-11.8-1.25,7.554,7.554,0,0,1,1.349-6.673,5.724,5.724,0,0,1,4.46-2.178,6.368,6.368,0,0,1,6.575,6.014A8.267,8.267,0,0,1,488.023,139.242Z" transform="translate(-421.29 -108.708)" fill="#fff"/>
      <path id="Path_45910" data-name="Path 45910" d="M1913.73,126.569a9.134,9.134,0,1,0,9.156,9.133A8.968,8.968,0,0,0,1913.73,126.569Zm5.105,13.629a6.685,6.685,0,0,1-11.748-4.275c.021-3.732,2.047-6.323,5.268-7.008a6.47,6.47,0,0,1,7.874,5.519A7.167,7.167,0,0,1,1918.836,140.2Z" transform="translate(-1702.149 -108.341)" fill="#fff"/>
      <path id="Path_45911" data-name="Path 45911" d="M1562.719,135.337c3.675.02,7.343.012,11.014.012.913,0,.945,0,1.05-.917a6.15,6.15,0,0,0-2.158-5.761,7.9,7.9,0,0,0-11.248,1.5,9.644,9.644,0,0,0-1.569,7.954,8.359,8.359,0,0,0,4.118,5.9,9.1,9.1,0,0,0,6.089.915,8.717,8.717,0,0,0,4.271-1.72c.16-.127.336-.231.328-.492-.018-.588,0-1.176,0-1.873l-.478.336a8.975,8.975,0,0,1-5.912,1.715,6.149,6.149,0,0,1-5.722-4.311,9.158,9.158,0,0,1-.372-2.679C1562.128,135.451,1562.257,135.335,1562.719,135.337Zm-.292-2.271a5.52,5.52,0,0,1,8-3.388,3.7,3.7,0,0,1,1.944,3.411c0,.315-.1.42-.427.42-1.538-.017-3.076-.007-4.62-.007-1.521,0-3.045-.008-4.562.006C1562.413,133.506,1562.327,133.444,1562.427,133.066Z" transform="translate(-1393.39 -108.689)" fill="#fff"/>
      <path id="Path_45912" data-name="Path 45912" d="M1094.222,128.356a7.943,7.943,0,0,0-10.9,1.908,9.644,9.644,0,0,0-1.47,8.068,8.3,8.3,0,0,0,4.619,5.984,9.3,9.3,0,0,0,5.482.639,8.82,8.82,0,0,0,4.242-1.657c.16-.123.381-.22.384-.465.007-.618,0-1.238,0-1.84-.079-.018-.105-.03-.111-.024-.131.085-.263.172-.391.261a8.667,8.667,0,0,1-5.863,1.673,6.36,6.36,0,0,1-4.455-2.039,6.91,6.91,0,0,1-1.618-4.841c.009-.668,0-.668.677-.668h11.327c.259,0,.477.044.564-.342A6.45,6.45,0,0,0,1094.222,128.356Zm-.279,5.157c-1.538-.015-3.075-.006-4.613-.006h-4.561c-.235,0-.48.036-.371-.342a5.154,5.154,0,0,1,3.465-3.81,5.251,5.251,0,0,1,5.278.863,3.609,3.609,0,0,1,1.221,2.889C1094.367,133.438,1094.255,133.516,1093.942,133.513Z" transform="translate(-965.564 -108.699)" fill="#fff"/>
    </g>
  </g>
</svg>
